# xmcd
#
# Track frame offsets:
#	150
#	19992
#	36685
#	51519
#	62552
#	82604
#	95076
#	107315
#	123084
#	139410
#	152835
#	168303
#	186071
#
# Disc length: 2695 seconds
#
# Revision: 4
# Processed by: cddbd v1.5.2PL0 Copyright (c) Steve Scherf et al.
# Submitted via: audiograbber 1.83.01
#
DISCID=ab0a850d
DTITLE=Orta Krause Maas - Coolstep
DYEAR=2004
DGENRE=Blues
TTITLE0=Boogie Till You Drop
TTITLE1=I Got to Go
TTITLE2=Hey Baby
TTITLE3=Evans Shuffle
TTITLE4=Robbin Little Woman
TTITLE5=Let Me Explain
TTITLE6=Houston Boogie
TTITLE7=Do the Boogie Woogie
TTITLE8=Gold Hearted Woman
TTITLE9=You're so Fine
TTITLE10=I Love You Baby
TTITLE11=Rolling and Smoking
TTITLE12=Let's Have some Fun
EXTD=By Michael Maas and Stormy Monday Records YEAR: 2004
EXTT0=Paul Orta
EXTT1=Walter Jacobs - Paul Orta
EXTT2=Walter Jacobs
EXTT3=McKinley Morgenfeld
EXTT4=Paul Orta
EXTT5=Rice Miller
EXTT6=Paul Orta
EXTT7=Paul Orta - Snooky Pryor
EXTT8=Paul Orta - Walter Horton
EXTT9=Walter Jacobs
EXTT10=Sonny Terry
EXTT11=Paul Orta - Newbern
EXTT12=Paul Orta
PLAYORDER=
